<?xml version="1.0" standalone="no"?>
<!DOCTYPE svg PUBLIC "-//W3C//DTD SVG 20010904//EN"
 "http://www.w3.org/TR/2001/REC-SVG-20010904/DTD/svg10.dtd">
<svg version="1.0" xmlns="http://www.w3.org/2000/svg"
 width="1280.000000pt" height="1222.000000pt" viewBox="0 0 1280.000000 1222.000000"
 preserveAspectRatio="xMidYMid meet">
<g transform="translate(0.000000,1222.000000) scale(0.100000,-0.100000)"
fill="#000000" stroke="none">
<path d="M8563 12189 c-395 -51 -1042 -499 -1809 -1251 -99 -98 -188 -178
-197 -178 -8 0 -52 16 -98 35 -386 166 -842 284 -1309 340 -183 22 -642 31
-840 16 -555 -43 -1050 -165 -1553 -385 -71 -31 -132 -56 -136 -56 -4 0 -86
75 -182 166 -820 783 -1417 1181 -1801 1202 -118 6 -175 -7 -245 -55 -95 -64
-158 -183 -194 -365 -98 -504 9 -1487 318 -2912 62 -287 61 -242 13 -448 -35
-153 -51 -279 -57 -463 -9 -282 26 -524 113 -782 25 -73 43 -137 40 -142 -3
-4 -128 -28 -278 -52 -255 -40 -275 -45 -301 -70 -37 -37 -36 -81 2 -120 16
-16 40 -29 53 -29 13 0 152 21 310 46 158 26 293 44 300 42 7 -3 38 -46 67
-94 30 -49 76 -120 103 -157 27 -38 47 -74 45 -80 -3 -7 -110 -50 -238 -97
-254 -92 -289 -112 -289 -170 0 -37 47 -90 80 -90 11 0 145 45 297 100 152 55
280 100 285 100 4 0 52 -43 106 -96 248 -246 524 -439 884 -619 338 -169 741
-308 1138 -394 80 -18 153 -34 163 -37 19 -6 22 -39 8 -76 -20 -54 -51 -233
-59 -344 -24 -324 48 -665 222 -1047 86 -190 133 -277 216 -392 31 -44 60 -85
63 -92 11 -19 287 -1555 281 -1565 -3 -5 -49 -30 -102 -57 -313 -157 -574
-396 -692 -631 -95 -189 -122 -383 -74 -525 27 -77 103 -148 189 -174 197 -61
537 25 831 210 33 21 66 39 71 39 6 0 13 -22 16 -49 19 -161 162 -262 442
-315 380 -70 872 -29 1124 96 154 76 231 181 285 388 83 314 98 861 41 1480
-8 88 -9 149 -4 155 6 5 629 31 1517 62 1187 41 1509 50 1518 40 8 -9 7 -69
-2 -217 -7 -113 -17 -331 -24 -485 -6 -154 -13 -290 -16 -302 -3 -17 -14 -22
-56 -28 -172 -24 -377 -149 -506 -310 -118 -146 -202 -356 -205 -510 -2 -69 2
-88 24 -130 90 -175 354 -197 768 -63 152 49 308 114 421 174 223 120 417 280
476 394 28 53 29 60 29 195 0 127 -3 150 -32 250 -49 167 -57 230 -50 390 10
218 19 234 76 138 75 -124 229 -315 434 -537 l78 -84 -37 -98 c-131 -350 -133
-595 -6 -837 43 -84 111 -161 166 -190 30 -16 58 -21 108 -21 58 0 78 6 155
44 234 115 502 498 637 912 118 359 119 627 2 781 -19 25 -78 73 -146 118
-276 184 -396 353 -430 603 -39 281 -40 308 -24 411 9 55 18 152 20 215 3 63
13 165 24 225 31 184 43 354 37 544 -6 185 -21 293 -64 453 l-26 97 79 103
c178 235 351 442 739 888 616 708 733 866 814 1108 98 289 85 638 -36 986
-133 385 -399 716 -651 809 -76 28 -211 30 -263 4 -51 -25 -98 -74 -123 -127
-18 -39 -20 -64 -21 -190 0 -201 22 -298 180 -810 82 -264 99 -351 91 -446
-41 -447 -478 -997 -1148 -1444 -84 -57 -179 -124 -210 -151 -31 -27 -63 -49
-71 -49 -8 0 -55 18 -103 40 -484 223 -1275 396 -2442 534 -156 18 -288 38
-293 43 -8 8 17 30 78 71 137 94 297 227 417 345 60 59 116 107 124 107 9 0
95 -29 193 -65 97 -36 192 -65 211 -65 72 0 109 90 60 143 -15 15 -77 44 -170
77 -81 29 -153 58 -160 65 -11 10 -2 29 51 106 35 52 83 128 106 169 23 41 48
81 55 88 10 10 53 6 224 -22 236 -39 260 -37 288 16 19 36 11 78 -19 106 -18
17 -60 27 -206 51 -101 16 -188 34 -193 39 -6 6 4 52 27 123 142 440 142 908
-1 1402 l-35 118 46 207 c192 859 319 1661 356 2232 13 200 7 515 -11 644 -46
318 -154 473 -351 506 -35 5 -68 9 -74 9 -5 -1 -38 -5 -72 -10z m-3624 -9803
c203 -150 324 -393 352 -708 9 -109 0 -328 -16 -369 -3 -8 -27 -27 -53 -44
-92 -57 -214 -148 -340 -250 -69 -58 -130 -101 -134 -97 -4 4 1 37 12 72 70
228 110 670 110 1218 0 149 3 212 11 212 6 0 32 -15 58 -34z"/>
</g>
</svg>
